<svg xmlns="http://www.w3.org/2000/svg" viewBox="0 0 100 100" width="100" height="100">
  <!-- Chalk box base -->
  <rect x="20" y="60" width="60" height="25" fill="#D3D3D3" stroke="#A9A9A9" stroke-width="2" rx="3"/>
  
  <!-- Chalk box face -->
  <rect x="25" y="65" width="50" height="15" fill="#E8E8E8" stroke="#A9A9A9" stroke-width="1" rx="2"/>
  
  <!-- Eyes -->
  <ellipse cx="35" cy="72" rx="3" ry="2" fill="#000000"/>
  <ellipse cx="55" cy="72" rx="3" ry="2" fill="#000000"/>
  
  <!-- Mouth -->
  <ellipse cx="45" cy="78" rx="4" ry="2" fill="#000000"/>
  
  <!-- Blush marks -->
  <ellipse cx="30" cy="75" rx="2" ry="1.5" fill="#FFB6C1" opacity="0.7"/>
  <ellipse cx="60" cy="75" rx="2" ry="1.5" fill="#FFB6C1" opacity="0.7"/>
  
  <!-- Color strip at bottom -->
  <rect x="25" y="80" width="10" height="3" fill="#87CEEB"/> <!-- Light blue -->
  <rect x="35" y="80" width="10" height="3" fill="#FFB6C1"/> <!-- Light pink -->
  <rect x="45" y="80" width="10" height="3" fill="#DDA0DD"/> <!-- Light purple -->
  <rect x="55" y="80" width="10" height="3" fill="#FFFFE0"/> <!-- Light yellow -->
  <rect x="65" y="80" width="10" height="3" fill="#98FB98"/> <!-- Light green -->
  
  <!-- Chalk sticks -->
  <!-- Light blue chalk -->
  <rect x="25" y="45" width="4" height="15" fill="#87CEEB" stroke="#5F9EA0" stroke-width="0.5" rx="2"/>
  <ellipse cx="27" cy="45" rx="2" ry="1" fill="#87CEEB"/>
  
  <!-- Light pink chalk -->
  <rect x="35" y="40" width="4" height="20" fill="#FFB6C1" stroke="#FF69B4" stroke-width="0.5" rx="2"/>
  <ellipse cx="37" cy="40" rx="2" ry="1" fill="#FFB6C1"/>
  
  <!-- Light purple chalk -->
  <rect x="45" y="42" width="4" height="18" fill="#DDA0DD" stroke="#DA70D6" stroke-width="0.5" rx="2"/>
  <ellipse cx="47" cy="42" rx="2" ry="1" fill="#DDA0DD"/>
  
  <!-- Light yellow chalk -->
  <rect x="55" y="38" width="4" height="22" fill="#FFFFE0" stroke="#F0E68C" stroke-width="0.5" rx="2"/>
  <ellipse cx="57" cy="38" rx="2" ry="1" fill="#FFFFE0"/>
  
  <!-- Light green chalk -->
  <rect x="65" y="44" width="4" height="16" fill="#98FB98" stroke="#90EE90" stroke-width="0.5" rx="2"/>
  <ellipse cx="67" cy="44" rx="2" ry="1" fill="#98FB98"/>
</svg>
